<svg width="27" height="25" viewBox="0 0 27 25" fill="none" xmlns="http://www.w3.org/2000/svg">
<path d="M13.4 0.981495C13.4619 0.945769 13.5381 0.945769 13.6 0.981495L18.2292 3.65415C18.291 3.68987 18.3292 3.7559 18.3292 3.82735V9.17265C18.3292 9.2441 18.291 9.31013 18.2292 9.34585L13.6 12.0185C13.5381 12.0542 13.4619 12.0542 13.4 12.0185L8.77083 9.34585C8.70896 9.31013 8.67083 9.2441 8.67083 9.17265V3.82735C8.67083 3.7559 8.70895 3.68987 8.77083 3.65415L13.4 0.981495Z" stroke="#707070" stroke-width="1.6"/>
<path d="M20.4 12.9815C20.4619 12.9458 20.5381 12.9458 20.6 12.9815L25.2292 15.6541C25.291 15.6899 25.3292 15.7559 25.3292 15.8274V21.1727C25.3292 21.2441 25.291 21.3101 25.2292 21.3459L20.6 24.0185C20.5381 24.0542 20.4619 24.0542 20.4 24.0185L15.7708 21.3459C15.709 21.3101 15.6708 21.2441 15.6708 21.1726V15.8274C15.6708 15.7559 15.709 15.6899 15.7708 15.6541L20.4 12.9815Z" stroke="#707070" stroke-width="1.6"/>
<path d="M6.4 12.9815C6.46188 12.9458 6.53812 12.9458 6.6 12.9815L11.2292 15.6541C11.291 15.6899 11.3292 15.7559 11.3292 15.8274V21.1727C11.3292 21.2441 11.291 21.3101 11.2292 21.3459L6.6 24.0185C6.53812 24.0542 6.46188 24.0542 6.4 24.0185L1.77083 21.3459C1.70896 21.3101 1.67083 21.2441 1.67083 21.1726V15.8274C1.67083 15.7559 1.70895 15.6899 1.77083 15.6541L6.4 12.9815Z" stroke="#707070" stroke-width="1.6"/>
</svg>
