<svg width="27" height="25" viewBox="0 0 27 25" fill="none" xmlns="http://www.w3.org/2000/svg">
<path d="M8.80001 10.1108C8.88454 9.96307 9.11547 9.96307 9.19999 10.1108L16.9739 23.6973C17.0527 23.835 16.9437 24 16.7739 24H14.1872C14.103 24 14.0259 23.9571 13.987 23.8887L9.20029 15.4647C9.11596 15.3163 8.88405 15.3163 8.79971 15.4647L4.01303 23.8887C3.97417 23.9571 3.89696 24 3.81275 24H1.22608C1.05637 24 0.947331 23.835 1.02609 23.6973L8.80001 10.1108Z" stroke="#707070" stroke-width="1.2"/>
<path d="M10.8338 24C10.9586 24 11.0387 23.8617 10.9808 23.7464L9.14702 20.0928C9.0849 19.9691 8.9151 19.9691 8.85298 20.0928L7.01917 23.7464C6.96129 23.8617 7.04145 24 7.16619 24H10.8338Z" stroke="#707070" stroke-width="1.2"/>
<path d="M20.4 0.981495C20.4619 0.945769 20.5381 0.945769 20.6 0.981495L25.2292 3.65415C25.291 3.68987 25.3292 3.7559 25.3292 3.82735V9.17265C25.3292 9.2441 25.291 9.31013 25.2292 9.34585L20.6 12.0185C20.5381 12.0542 20.4619 12.0542 20.4 12.0185L15.7708 9.34585C15.709 9.31013 15.6708 9.2441 15.6708 9.17265V3.82735C15.6708 3.7559 15.709 3.68987 15.7708 3.65415L20.4 0.981495Z" stroke="#707070" stroke-width="1.6"/>
</svg>
