<svg width="22" height="21" viewBox="0 0 22 21" fill="none" xmlns="http://www.w3.org/2000/svg">
<path d="M7.33335 1.92857C8.05855 1.92857 8.76746 2.13803 9.37044 2.53047C9.97342 2.9229 10.4434 3.48068 10.7209 4.13327C10.9984 4.78587 11.071 5.50396 10.9296 6.19675C10.7881 6.88954 10.4389 7.52591 9.92607 8.02538C9.41328 8.52485 8.75994 8.865 8.04868 9.0028C7.33742 9.14061 6.60017 9.06988 5.93018 8.79957C5.26018 8.52926 4.68752 8.0715 4.28463 7.48418C3.88173 6.89686 3.66668 6.20636 3.66668 5.5C3.66668 4.5528 4.05299 3.64439 4.74062 2.97462C5.42826 2.30485 6.36089 1.92857 7.33335 1.92857ZM7.33335 0.5C6.31807 0.5 5.32559 0.793245 4.48142 1.34265C3.63725 1.89206 2.9793 2.67295 2.59077 3.58658C2.20224 4.50021 2.10058 5.50555 2.29865 6.47545C2.49672 7.44536 2.98562 8.33627 3.70353 9.03553C4.42144 9.73479 5.33612 10.211 6.33188 10.4039C7.32765 10.5969 8.3598 10.4978 9.29779 10.1194C10.2358 9.74096 11.0375 9.1001 11.6016 8.27785C12.1656 7.4556 12.4667 6.48891 12.4667 5.5C12.4667 4.17392 11.9258 2.90215 10.9632 1.96447C10.0005 1.02678 8.69479 0.5 7.33335 0.5Z" fill="white" fill-opacity="0.3"/>
<path d="M14.6667 20.5H13.2V16.9286C13.2 15.9814 12.8137 15.0729 12.1261 14.4032C11.4384 13.7334 10.5058 13.3571 9.53333 13.3571H5.13333C4.16087 13.3571 3.22824 13.7334 2.54061 14.4032C1.85298 15.0729 1.46667 15.9814 1.46667 16.9286V20.5H0V16.9286C0 15.6025 0.540832 14.3307 1.50352 13.393C2.46621 12.4553 3.77189 11.9286 5.13333 11.9286H9.53333C10.8948 11.9286 12.2005 12.4553 13.1631 13.393C14.1258 14.3307 14.6667 15.6025 14.6667 16.9286V20.5Z" fill="white" fill-opacity="0.3"/>
<path d="M14.6667 1.92856H22V3.35713H14.6667V1.92856Z" fill="white" fill-opacity="0.3"/>
<path d="M14.6667 5.5H22V6.92857H14.6667V5.5Z" fill="white" fill-opacity="0.3"/>
<path d="M14.6667 9.07144H19.8V10.5H14.6667V9.07144Z" fill="white" fill-opacity="0.3"/>
</svg>
