<svg width="27" height="25" viewBox="0 0 27 25" fill="none" xmlns="http://www.w3.org/2000/svg">
<path d="M9.00002 1.78571C9.89003 1.78571 10.7601 2.04754 11.5001 2.53808C12.2401 3.02862 12.8169 3.72585 13.1575 4.54159C13.4981 5.35733 13.5872 6.25495 13.4135 7.12094C13.2399 7.98692 12.8113 8.78238 12.182 9.40673C11.5527 10.0311 10.7508 10.4563 9.87792 10.6285C9.00501 10.8008 8.10021 10.7124 7.27794 10.3745C6.45567 10.0366 5.75287 9.46437 5.2584 8.73022C4.76394 7.99608 4.50002 7.13295 4.50002 6.25C4.50002 5.066 4.97412 3.93049 5.81803 3.09327C6.66195 2.25606 7.80654 1.78571 9.00002 1.78571ZM9.00002 0C7.75399 0 6.53595 0.366556 5.49992 1.05331C4.46389 1.74007 3.65641 2.71619 3.17957 3.85823C2.70274 5.00027 2.57798 6.25693 2.82107 7.46931C3.06415 8.68169 3.66417 9.79534 4.54524 10.6694C5.42631 11.5435 6.54887 12.1387 7.77095 12.3799C8.99303 12.6211 10.2597 12.4973 11.4109 12.0242C12.5621 11.5512 13.546 10.7501 14.2383 9.72231C14.9305 8.69451 15.3 7.48613 15.3 6.25C15.3 4.5924 14.6363 3.00268 13.4548 1.83058C12.2733 0.65848 10.6709 0 9.00002 0Z" fill="#707070"/>
<path d="M18 25H16.2V20.5357C16.2 19.3517 15.7259 18.2162 14.882 17.379C14.0381 16.5418 12.8935 16.0714 11.7 16.0714H6.3C5.10653 16.0714 3.96193 16.5418 3.11802 17.379C2.27411 18.2162 1.8 19.3517 1.8 20.5357V25H0V20.5357C0 18.8781 0.663748 17.2884 1.84523 16.1163C3.02671 14.9442 4.62914 14.2857 6.3 14.2857H11.7C13.3709 14.2857 14.9733 14.9442 16.1548 16.1163C17.3363 17.2884 18 18.8781 18 20.5357V25Z" fill="#707070"/>
<path d="M18 1.78571H27V3.57142H18V1.78571Z" fill="#707070"/>
<path d="M18 6.25H27V8.03571H18V6.25Z" fill="#707070"/>
<path d="M18 10.7143H24.3V12.5H18V10.7143Z" fill="#707070"/>
</svg>
