<svg width="22" height="21" viewBox="0 0 22 21" fill="none" xmlns="http://www.w3.org/2000/svg">
<g clip-path="url(#clip0)">
<path d="M10.9 1.4815C10.9619 1.44577 11.0381 1.44577 11.1 1.4815L14.4301 3.40415C14.492 3.43987 14.5301 3.5059 14.5301 3.57735V7.42265C14.5301 7.4941 14.492 7.56013 14.4301 7.59586L11.1 9.5185C11.0381 9.55423 10.9619 9.55423 10.9 9.5185L7.56987 7.59585C7.50799 7.56013 7.46987 7.4941 7.46987 7.42265V3.57735C7.46987 3.5059 7.50799 3.43987 7.56987 3.40415L10.9 1.4815Z" stroke="white" stroke-opacity="0.3" stroke-width="1.6"/>
<path d="M16.4071 11.9523C16.4653 11.9217 16.5347 11.9217 16.5929 11.9523L16.9647 11.2439L16.5929 11.9523L20.3561 13.9274C20.4219 13.962 20.4631 14.0302 20.4631 14.1045V17.8955C20.4631 17.9698 20.4219 18.038 20.3561 18.0726L16.5929 20.0477C16.5347 20.0783 16.4653 20.0783 16.4071 20.0477L12.6439 18.0726C12.5781 18.038 12.5369 17.9698 12.5369 17.8955V14.1045C12.5369 14.0302 12.5781 13.962 12.6439 13.9274L16.4071 11.9523Z" stroke="white" stroke-opacity="0.3" stroke-width="1.6"/>
<path d="M4.9 11.4815C4.96188 11.4458 5.03812 11.4458 5.1 11.4815L8.43013 13.4041C8.49201 13.4399 8.53013 13.5059 8.53013 13.5774V17.4226C8.53013 17.4941 8.49201 17.5601 8.43013 17.5959L5.1 19.5185C5.03812 19.5542 4.96188 19.5542 4.9 19.5185L1.56987 17.5959C1.50799 17.5601 1.46987 17.4941 1.46987 17.4226V13.5774C1.46987 13.5059 1.50799 13.4399 1.56987 13.4041L4.9 11.4815Z" stroke="white" stroke-opacity="0.3" stroke-width="1.6"/>
</g>
<defs>
<clipPath id="clip0">
<rect width="22" height="20" fill="white" transform="translate(0 0.5)"/>
</clipPath>
</defs>
</svg>
