<svg width="23" height="21" viewBox="0 0 23 21" fill="none" xmlns="http://www.w3.org/2000/svg">
<path d="M7.82501 8.09497C7.89897 7.96834 8.10104 7.96835 8.17499 8.09497L14.9772 19.7406C15.0461 19.8585 14.9507 20 14.8022 20H12.5388C12.4651 20 12.3977 19.9632 12.3636 19.9046L8.17526 12.684C8.10146 12.5568 7.89854 12.5568 7.82475 12.684L3.63641 19.9046C3.6024 19.9632 3.53484 20 3.46115 20H1.19782C1.04932 20 0.953915 19.8585 1.02283 19.7406L7.82501 8.09497Z" stroke="white" stroke-opacity="0.3" stroke-width="1.2"/>
<path d="M9.83381 20C9.95855 20 10.0387 19.8617 9.98083 19.7464L8.14702 16.0928C8.0849 15.9691 7.9151 15.9691 7.85298 16.0928L6.01917 19.7464C5.96129 19.8617 6.04145 20 6.16619 20H9.83381Z" stroke="white" stroke-opacity="0.3"/>
<path d="M17.5995 1.5009C17.6635 1.46184 17.7439 1.46184 17.8079 1.5009L21.3946 3.69044C21.4541 3.72676 21.4904 3.79144 21.4904 3.86115V8.33885C21.4904 8.40856 21.4541 8.47324 21.3946 8.50956L17.8079 10.6991C17.7439 10.7382 17.6635 10.7382 17.5995 10.6991L14.0128 8.50956C13.9533 8.47324 13.917 8.40856 13.917 8.33885V3.86115C13.917 3.79144 13.9533 3.72676 14.0128 3.69044L13.5959 3.00762L14.0128 3.69044L17.5995 1.5009Z" stroke="white" stroke-opacity="0.3" stroke-width="1.6"/>
</svg>
